<svg xmlns="http://www.w3.org/2000/svg" width="256" height="256" viewBox="0 0 256 256">
  <!-- Generated by build/render_icons.py from the approved Q1View J geometry (comparator). -->
  <defs>
    <linearGradient id="brand" x1="0" y1="0" x2="0" y2="1"><stop stop-color="#2853C7"/><stop offset="1" stop-color="#713DAE"/></linearGradient>
    <linearGradient id="sky" x1="0" y1="0" x2="0" y2="1"><stop stop-color="#28A9F0"/><stop offset="1" stop-color="#6670DC"/></linearGradient>
    <linearGradient id="mint" x1="0" y1="0" x2="0" y2="1"><stop stop-color="#ECFFFA"/><stop offset="1" stop-color="#B7ECE8"/></linearGradient>
    <linearGradient id="lavender" x1="0" y1="0" x2="0" y2="1"><stop stop-color="#EEE9FF"/><stop offset="1" stop-color="#B5B2F2"/></linearGradient>
  </defs>
  <g transform="matrix(1 0 0 1.075630 0 5.378151)">
    <rect x="8" y="12" width="197" height="204" rx="40" fill="url(#sky)"/>
    <rect x="3" y="6" width="204" height="214" rx="49" fill="none" stroke="url(#brand)" stroke-width="25"/>
    <line x1="171" y1="184" x2="199" y2="212" stroke="url(#brand)" stroke-width="25" stroke-linecap="round"/>
    <polygon points="204,41 224,20 249,20 249,216 224,216 224,52 204,68" fill="url(#brand)"/>
    <rect x="28" y="27" width="17" height="14" rx="3" fill="#E5FCFF"/>
    <rect x="28" y="185" width="17" height="14" rx="3" fill="#E6DCFF"/>
    <rect x="72" y="27" width="17" height="14" rx="3" fill="#E5FCFF"/>
    <rect x="72" y="185" width="17" height="14" rx="3" fill="#E6DCFF"/>
    <rect x="119" y="27" width="17" height="14" rx="3" fill="#E5FCFF"/>
    <rect x="119" y="185" width="17" height="14" rx="3" fill="#E6DCFF"/>
    <rect x="166" y="27" width="17" height="14" rx="3" fill="#E5FCFF"/>
    <rect x="166" y="185" width="17" height="14" rx="3" fill="#E6DCFF"/>
    <polygon points="22,184 66,118 104,184" fill="url(#mint)"/>
    <polygon points="110,184 154,118 192,184" fill="url(#lavender)"/>
    <line x1="107" y1="51" x2="107" y2="188" stroke="#F4C66D" stroke-width="10"/>
  </g>
</svg>
