<svg xmlns="http://www.w3.org/2000/svg" width="256" height="256" viewBox="0 0 256 256">
  <!-- Generated by build/render_icons.py from the approved Q1View J geometry (comparator). -->
  <defs>
    <linearGradient id="brand" x1="0" y1="0" x2="0" y2="1"><stop stop-color="#2853C7"/><stop offset="1" stop-color="#713DAE"/></linearGradient>
    <linearGradient id="sky" x1="0" y1="0" x2="0" y2="1"><stop stop-color="#28A9F0"/><stop offset="1" stop-color="#6670DC"/></linearGradient>
    <linearGradient id="mint" x1="0" y1="0" x2="0" y2="1"><stop stop-color="#ECFFFA"/><stop offset="1" stop-color="#B7ECE8"/></linearGradient>
    <linearGradient id="lavender" x1="0" y1="0" x2="0" y2="1"><stop stop-color="#EEE9FF"/><stop offset="1" stop-color="#B5B2F2"/></linearGradient>
  </defs>
  <g transform="matrix(1 0 0 1.075630 0 5.378151)">
    <rect x="22" y="25" width="160" height="174" rx="34" fill="url(#sky)"/>
    <rect x="5" y="8" width="194" height="208" rx="48" fill="none" stroke="url(#brand)" stroke-width="18"/>
    <line x1="166" y1="183" x2="203" y2="220" stroke="url(#brand)" stroke-width="18" stroke-linecap="round"/>
    <polygon points="215,48 232,29 250,29 250,207 232,207 232,57 215,70" fill="url(#brand)"/>
    <rect x="37" y="33" width="13" height="12" rx="3" fill="#E5FCFF"/>
    <rect x="37" y="179" width="13" height="12" rx="3" fill="#E6DCFF"/>
    <rect x="75" y="33" width="13" height="12" rx="3" fill="#E5FCFF"/>
    <rect x="75" y="179" width="13" height="12" rx="3" fill="#E6DCFF"/>
    <rect x="119" y="33" width="13" height="12" rx="3" fill="#E5FCFF"/>
    <rect x="119" y="179" width="13" height="12" rx="3" fill="#E6DCFF"/>
    <rect x="157" y="33" width="13" height="12" rx="3" fill="#E5FCFF"/>
    <rect x="157" y="179" width="13" height="12" rx="3" fill="#E6DCFF"/>
    <polygon points="31,174 68,122 98,174" fill="url(#mint)"/>
    <polygon points="108,174 145,122 175,174" fill="url(#lavender)"/>
    <line x1="103" y1="55" x2="103" y2="177" stroke="#F4C66D" stroke-width="9"/>
  </g>
</svg>
