<svg xmlns="http://www.w3.org/2000/svg" width="256" height="256" viewBox="0 0 256 256">
  <!-- Generated by build/render_icons.py from the approved Q1View J geometry (photo). -->
  <defs>
    <linearGradient id="brand" x1="0" y1="0" x2="0" y2="1"><stop stop-color="#2853C7"/><stop offset="1" stop-color="#713DAE"/></linearGradient>
    <linearGradient id="sky" x1="0" y1="0" x2="0" y2="1"><stop stop-color="#28A9F0"/><stop offset="1" stop-color="#6670DC"/></linearGradient>
    <linearGradient id="mint" x1="0" y1="0" x2="0" y2="1"><stop stop-color="#ECFFFA"/><stop offset="1" stop-color="#B7ECE8"/></linearGradient>
    <linearGradient id="lavender" x1="0" y1="0" x2="0" y2="1"><stop stop-color="#EEE9FF"/><stop offset="1" stop-color="#B5B2F2"/></linearGradient>
  </defs>
  <rect x="34" y="18" width="188" height="220" rx="28" fill="#F8FAFF" stroke="#CBD5E1" stroke-width="5"/>
  <polygon points="164,18 222,76 164,76" fill="#DCE5F2"/>
  <rect x="50" y="112" width="156" height="108" rx="20" fill="url(#sky)"/>
  <circle cx="88" cy="144" r="12" fill="#FFF1AE"/>
  <polygon points="101,196 158,151 195,196" fill="url(#lavender)"/>
  <polygon points="65,196 110,149 151,196" fill="url(#mint)"/>
  <g transform="translate(82 25) scale(.34375)">
    <rect x="3" y="6" width="204" height="214" rx="49" fill="none" stroke="url(#brand)" stroke-width="23"/>
    <line x1="171" y1="184" x2="199" y2="212" stroke="url(#brand)" stroke-width="23" stroke-linecap="round"/>
    <polygon points="207,43 226,22 249,22 249,214 226,214 226,53 207,68" fill="url(#brand)"/>
  </g>
</svg>
